<svg width="90" height="91" viewBox="0 0 90 91" fill="none" xmlns="http://www.w3.org/2000/svg">
<path d="M13.4121 5.46778C11.6894 5.94239 10.2832 7.10255 9.50974 8.71973L9.05271 9.68653L8.99997 34.4189L8.96482 59.1514L4.93943 59.2041C0.914037 59.2568 0.914037 59.2568 0.439428 59.6963C-2.54884e-05 60.1006 -0.0351817 60.2236 0.0351308 61.3662C0.1406 63.4932 1.45896 65.3916 3.48044 66.3408L4.4824 66.8154L26.9297 66.8682L49.3769 66.9033L49.4297 76.2197L49.4824 85.5186L49.8867 85.9228C50.1504 86.2041 50.4843 86.3271 50.9765 86.3271C51.6621 86.3271 51.8027 86.2041 55.8105 82.1963L59.9414 78.0654L64.0195 82.1436C66.6562 84.7627 68.291 86.2568 68.6074 86.3271C69.3281 86.5205 70.1367 86.0986 70.4179 85.4307C70.6113 84.9561 70.664 83.0928 70.664 75.8682V66.9033H73.1777C76.0605 66.9033 77.1679 66.6748 78.416 65.8311C79.4707 65.1104 80.1211 64.2842 80.6308 63.0537L81.0351 62.0693V37.4951V12.9385H84.7969C86.959 12.9385 88.7695 12.8682 89.0683 12.7627C89.8418 12.4815 90.0703 11.9365 89.9648 10.6006C89.8418 9.21192 89.2969 8.05177 88.2597 7.01466C87.3633 6.10059 86.5547 5.67872 85.289 5.39747C84.6211 5.25684 74.6191 5.20411 49.3418 5.22169C19.8105 5.22169 14.1855 5.27442 13.4121 5.46778ZM78.5742 8.45606C78.5742 8.5088 78.4336 8.84278 78.2754 9.21192C77.9765 9.82716 77.959 11.4619 77.9062 34.5068L77.8711 59.1689H74.8828H71.8945V60.751V62.333H74.6191C76.9394 62.333 77.3261 62.3682 77.2383 62.5967C77.1855 62.7373 76.8515 63.0361 76.5 63.2471C75.9199 63.6162 75.5859 63.6514 73.2656 63.7041L70.664 63.7744V62.9658V62.1572H69.082H67.5V71.5967V81.0361L64.1074 77.6611C60.8554 74.4268 60.6797 74.2861 60.0293 74.2861C59.3613 74.2861 59.1855 74.4268 55.9511 77.6611L52.5586 81.0537V71.5967V62.1572H50.9765H49.3945V62.9482V63.7393L27.2812 63.7041L5.16794 63.6514L4.42966 63.1592C4.02537 62.8955 3.69138 62.5967 3.69138 62.5088C3.69138 62.3857 11.4258 62.333 25.9277 62.333H48.164V60.751V59.1689H30.1465H12.1289V34.876V10.6006L12.5683 9.86231C12.8496 9.37012 13.2539 8.98341 13.7461 8.73731L14.5019 8.36817H46.5468C64.1601 8.36817 78.5742 8.40333 78.5742 8.45606ZM85.6582 9.00098C86.0097 9.2295 86.3086 9.51075 86.3086 9.59864C86.3086 9.70411 85.3769 9.77442 83.9004 9.77442H81.5097L81.8437 9.40528C82.7929 8.33302 84.3926 8.15723 85.6582 9.00098Z" fill="white"/>
<path d="M32.8711 15.751V17.333H45H57.1289V15.751V14.1689H45H32.8711V15.751Z" fill="white"/>
<path d="M17.9297 24.8916V26.4736H45H72.0703V24.8916V23.3096H45H17.9297V24.8916Z" fill="white"/>
<path d="M17.9297 30.8682V32.4502H45H72.0703V30.8682V29.2861H45H17.9297V30.8682Z" fill="white"/>
<path d="M59.414 33.8741C59.1679 33.9795 58.3417 34.7354 57.5683 35.5616L56.1445 37.0909L54.2285 36.7041C51.8203 36.2295 51.6269 36.2295 51.0468 36.7217C50.6249 37.0909 50.5546 37.3369 50.3085 39.3409L50.0273 41.5381L48.0234 42.4873C46.2656 43.2959 45.9843 43.4893 45.7558 44.0166C45.457 44.7549 45.5097 44.9834 46.705 47.0752L47.6542 48.7979L46.6523 50.5909C45.0527 53.4385 45.2109 53.8955 48.1113 55.1963L50.0273 56.0576L50.3085 58.2549C50.5546 60.2588 50.6249 60.5049 51.0468 60.8741C51.6269 61.3662 52.0312 61.3838 54.3339 60.9092L56.1621 60.5401L57.6562 62.1397C59.2382 63.8448 59.8535 64.1612 60.6445 63.7393C60.873 63.6162 61.6992 62.8604 62.4726 62.0342L63.8964 60.5576L65.9355 60.9444C67.0605 61.1553 68.1855 61.2784 68.4316 61.208C69.1874 61.0323 69.4511 60.3994 69.7148 58.167C69.8554 57.042 69.996 56.0928 70.0136 56.0752C70.0312 56.0576 70.8398 55.6709 71.8066 55.2139C72.7734 54.7744 73.7402 54.2295 73.9511 54.0362C74.6191 53.4209 74.4785 52.6651 73.3886 50.6963C72.8613 49.7471 72.4218 48.9034 72.4218 48.8155C72.4218 48.7451 72.8613 47.9014 73.3886 46.9346C74.4785 44.9659 74.6191 44.1748 73.9687 43.5596C73.7402 43.3662 72.7734 42.8389 71.8066 42.3819C70.8574 41.9424 70.0488 41.5557 70.0136 41.5381C69.996 41.503 69.8554 40.5537 69.7148 39.4287C69.4511 37.1963 69.1874 36.5635 68.4316 36.3877C68.1679 36.3174 67.0781 36.4229 65.9003 36.6514L63.8613 37.0557L62.2968 35.4737C60.6972 33.8565 60.205 33.5752 59.414 33.8741ZM63.1933 40.3604C63.58 40.3428 64.4062 40.2373 65.039 40.0967C65.6718 39.9561 66.2695 39.8506 66.3749 39.833C66.498 39.833 66.6386 40.501 66.7617 41.4854C66.8671 42.3994 67.0253 43.3135 67.1308 43.4893C67.289 43.8057 70.0839 45.2823 70.4882 45.2823C70.5585 45.2823 70.2421 45.9678 69.7675 46.8116C69.2929 47.6729 68.9062 48.5518 68.9062 48.7803C68.9062 49.0088 69.2753 49.8701 69.7148 50.6787C70.1542 51.5049 70.4882 52.1905 70.4355 52.2432C70.4003 52.2784 69.6445 52.6651 68.7656 53.1045C66.955 53.9834 66.9374 54.001 66.7089 56.4795C66.5683 57.9385 66.6562 57.8858 64.8632 57.4991C62.7539 57.042 62.666 57.0596 61.2773 58.5537L60.0644 59.8721L58.6933 58.5537C57.1816 57.0772 57.2343 57.0948 55.0195 57.5166C54.2285 57.6573 53.5429 57.7451 53.5078 57.71C53.455 57.6748 53.3496 56.9366 53.2441 56.0752C53.1386 55.2139 52.9453 54.3174 52.7871 54.0889C52.6464 53.8604 51.8378 53.3682 50.9765 52.9463L49.4121 52.2256L50.2206 50.8194C51.2578 49.0264 51.2578 48.6045 50.2206 46.794L49.4121 45.3877L50.9765 44.6494C51.8378 44.2451 52.6464 43.7354 52.7871 43.5069C52.9453 43.2784 53.1386 42.3819 53.2441 41.5205C53.3496 40.6592 53.4726 39.9209 53.5078 39.8858C53.5429 39.833 54.1933 39.9209 54.9316 40.0791C57.2343 40.5537 57.2871 40.5362 58.746 39.042L60.0117 37.7061L61.2597 39.042C62.4023 40.2549 62.5429 40.3604 63.1933 40.3604Z" fill="white"/>
<path d="M58.0255 41.5205C54.2989 42.5225 51.9083 46.2314 52.5587 49.9756C52.8223 51.6103 53.4376 52.8408 54.4747 53.9482C56.4962 56.0928 59.4669 56.8662 62.2618 56.0049C64.3712 55.3545 65.8653 54.0537 66.8672 51.9619C67.377 50.8896 67.4122 50.6963 67.4122 48.7978C67.4122 46.8994 67.377 46.706 66.8672 45.6162C65.3028 42.3115 61.5411 40.5713 58.0255 41.5205ZM61.3653 44.667C64.3712 45.6865 65.3204 49.5361 63.1407 51.8564C62.4376 52.5947 61.0665 53.1924 60.0294 53.1924C57.4102 53.1924 55.1778 50.5557 55.7051 48.0771C55.9512 46.9697 56.1446 46.583 56.8477 45.8447C58.0606 44.5439 59.713 44.1045 61.3653 44.667Z" fill="white"/>
<path d="M19.3359 50.3799V51.9619H29.1797H39.0234V50.3799V48.7979H29.1797H19.3359V50.3799Z" fill="white"/>
</svg>
