<svg width="90" height="88" viewBox="0 0 90 88" fill="none" xmlns="http://www.w3.org/2000/svg">
<path d="M53.877 5.83704C52.0488 6.23171 49.7637 7.12401 48.1289 8.06778C46.125 9.21748 43.1191 12.1518 41.9414 14.108C40.1484 17.0423 39.375 19.8736 39.375 23.4085C39.375 28.299 40.9746 32.2285 44.3672 35.7119C46.7578 38.1657 49.2363 39.6586 52.6816 40.6882C54.1406 41.1172 54.4395 41.1515 57.6562 41.1515C60.873 41.1515 61.1719 41.1172 62.6309 40.6882C66.0762 39.6586 68.5547 38.1657 70.9453 35.7119C74.3379 32.2285 75.9375 28.299 75.9375 23.4085C75.9375 18.5351 74.3379 14.5884 70.9805 11.1394C68.5371 8.61689 66.0762 7.15833 62.6484 6.14591C61.2773 5.73408 60.7324 5.6826 58.0957 5.63112C55.8633 5.57964 54.791 5.63112 53.877 5.83704ZM56.25 9.42339C56.25 10.6074 56.6367 11.0536 57.6562 11.0536C58.6758 11.0536 59.0625 10.6074 59.0625 9.42339C59.0625 8.29086 59.0098 8.30802 61.3828 8.89145C63.123 9.32043 65.2852 10.2985 66.6035 11.2252L67.3594 11.7743L66.832 12.3062C66.5332 12.6151 66.2344 13.0612 66.1816 13.3358C65.9004 14.3825 66.9023 15.3606 67.9746 15.0861C68.2559 15.0346 68.7129 14.7429 69.0293 14.4512L69.5742 13.9364L70.1367 14.6742C71.0859 15.9612 72.0879 18.0718 72.5273 19.7706C73.125 22.0872 73.1426 22.0357 71.9824 22.0357C70.7695 22.0357 70.3125 22.4132 70.3125 23.4085C70.3125 24.4037 70.7695 24.7812 71.9824 24.7812C73.1426 24.7812 73.125 24.7298 72.5273 27.0463C72.0879 28.7451 71.0859 30.8557 70.1367 32.1427L69.5742 32.8806L69.0293 32.3658C68.7129 32.0741 68.2559 31.7823 67.9746 31.7309C66.9023 31.4563 65.9004 32.4344 66.1816 33.4811C66.2344 33.7557 66.5332 34.2019 66.8145 34.4936L67.3418 35.0255L66.498 35.6261C65.1445 36.6042 63.1758 37.4793 61.3828 37.9255C59.0098 38.5089 59.0625 38.5261 59.0625 37.3935C59.0625 36.2095 58.6758 35.7634 57.6562 35.7634C56.6367 35.7634 56.25 36.2095 56.25 37.3935C56.25 38.5261 56.3027 38.5089 53.9297 37.9255C52.1895 37.4965 50.0273 36.5184 48.709 35.5918L47.9531 35.0427L48.4805 34.5107C48.7793 34.2019 49.0781 33.7557 49.1309 33.4811C49.4121 32.4344 48.4102 31.4563 47.3379 31.7309C47.0566 31.7823 46.5996 32.0741 46.2832 32.3658L45.7383 32.8806L45.1758 32.1427C44.2266 30.8557 43.2246 28.7451 42.7852 27.0463C42.1875 24.7298 42.1699 24.7812 43.3301 24.7812C44.543 24.7812 45 24.4037 45 23.4085C45 22.4132 44.543 22.0357 43.3301 22.0357C42.1699 22.0357 42.1875 22.0872 42.7852 19.7706C43.2246 18.0718 44.2266 15.9612 45.1758 14.6742L45.7383 13.9364L46.2832 14.4512C46.5996 14.7429 47.0566 15.0346 47.3379 15.0861C48.4102 15.3606 49.4121 14.3825 49.1309 13.3358C49.0781 13.0612 48.7793 12.6151 48.4805 12.3062L47.9531 11.7743L48.709 11.2252C49.9922 10.3157 52.1895 9.32043 53.8594 8.89145C56.25 8.29086 56.25 8.29086 56.25 9.42339Z" fill="white"/>
<path d="M56.6015 14.1423C56.2851 14.4511 56.2499 14.7085 56.2499 16.9564C56.2499 19.3245 56.2324 19.4446 55.8808 19.5475C55.2656 19.7363 54.1054 20.8688 53.7714 21.6067C53.3671 22.4647 53.332 24.2149 53.7187 25.0901C54.0703 25.9309 54.9492 26.806 55.8105 27.2007C56.7421 27.6297 58.5527 27.6297 59.5019 27.2007C60.2578 26.8747 61.4179 25.7422 61.6113 25.1416C61.7167 24.8327 61.8574 24.7812 62.8593 24.7812C64.248 24.7812 64.6874 24.4552 64.6874 23.4084C64.6874 22.3617 64.248 22.0357 62.8593 22.0357C61.787 22.0357 61.7343 22.0185 61.5234 21.5209C61.2773 20.9375 59.9941 19.7191 59.4316 19.5475C59.08 19.4446 59.0624 19.3416 59.0624 16.9564C59.0624 14.7085 59.0273 14.4511 58.7109 14.1423C58.4824 13.9192 58.1308 13.7991 57.6562 13.7991C57.1816 13.7991 56.83 13.9192 56.6015 14.1423ZM58.5351 22.5505C58.7285 22.7392 58.8867 23.1167 58.8867 23.4084C58.8867 23.7002 58.7285 24.0777 58.5351 24.2664C58.3417 24.4552 57.955 24.6096 57.6562 24.6096C57.3574 24.6096 56.9706 24.4552 56.7773 24.2664C56.5839 24.0777 56.4257 23.7002 56.4257 23.4084C56.4257 23.1167 56.5839 22.7392 56.7773 22.5505C56.9706 22.3617 57.3574 22.2073 57.6562 22.2073C57.955 22.2073 58.3417 22.3617 58.5351 22.5505Z" fill="white"/>
<path d="M76.8164 40.2077C76.3769 40.3621 71.7187 42.6959 66.4629 45.3727C60.4511 48.4272 56.8652 50.1603 56.8125 50.0402C56.6191 49.4739 55.5468 48.1526 54.8789 47.655C53.4199 46.5739 53.4023 46.5739 41.9941 46.5739H31.6758L30.7441 47.2946C30.2343 47.6893 27.0351 50.2289 23.625 52.9401C17.4726 57.8478 17.4199 57.8649 17.1035 57.5217C16.2246 56.5436 13.8164 56.2176 12.375 56.8525C11.7773 57.1099 7.68162 60.6448 6.64451 61.7773C5.78318 62.7383 5.53708 64.7803 6.13474 66.0501C6.31052 66.4447 8.1738 68.5897 10.3886 70.9405C12.5508 73.2571 15.6797 76.6032 17.3672 78.405C19.0371 80.1896 20.6718 81.8197 21.0058 82.0428C22.2187 82.8493 23.9765 82.9351 25.3476 82.2487C26.0683 81.8884 30.5332 77.9245 31.0781 77.1695C31.9218 75.9855 32.0449 74.4239 31.4121 73.0855L30.9902 72.2275L33.3808 70.4772L35.7715 68.727L47.1972 68.7098H58.623L69.9609 59.4265C84.0761 47.8952 83.2324 48.6159 83.7949 47.552C84.1992 46.797 84.2695 46.4366 84.2695 45.287C84.2695 44.1373 84.1992 43.7597 83.7949 42.9361C83.1972 41.7521 81.7207 40.3793 80.7363 40.0876C79.6992 39.7787 77.748 39.8474 76.8164 40.2077ZM80.4375 43.3308C80.666 43.5367 80.9824 44.0515 81.1406 44.4633C81.4218 45.1497 81.4218 45.2526 81.1406 45.9562C80.9824 46.3852 80.5957 46.9 80.2793 47.1402C79.9629 47.3633 74.6543 51.7046 68.4843 56.7667L57.2519 65.9643H45.8789H34.5058L31.7109 68.0234L28.916 70.0826L28.4765 69.5849C28.2304 69.3104 26.1562 67.0968 23.8711 64.6601C21.5859 62.2063 19.7051 60.13 19.7051 60.0442C19.7226 59.9412 22.6582 57.5389 26.2441 54.6733L32.7832 49.4911H42.416C52.0136 49.4911 52.0664 49.4911 52.7519 49.8686C53.209 50.1088 53.5605 50.5035 53.8242 51.0011C54.1582 51.6875 54.1758 51.8591 53.9824 52.5455C53.7187 53.5236 53.209 54.2099 52.5058 54.6046C52.0136 54.862 51.1699 54.9135 45.2109 54.9821C38.7949 55.0679 38.4609 55.0851 38.2148 55.394C37.8457 55.8916 37.8984 56.9726 38.3203 57.3845C38.6543 57.7105 38.9004 57.7277 45.6679 57.7277H52.6465L53.5605 57.3158C54.7383 56.7839 55.8984 55.6514 56.4609 54.4845L56.9004 53.575L65.1445 49.3709C78.9961 42.3183 78.5039 42.5414 79.5234 42.8331C79.8047 42.9018 80.2265 43.1248 80.4375 43.3308ZM15.3633 59.9927C17.0332 61.6744 28.582 74.1151 28.7226 74.3725C29.0215 75.0074 28.6347 75.5393 26.3496 77.5642C23.9765 79.6576 23.5547 79.9493 23.0097 79.7777C22.6406 79.6576 9.19333 65.3808 8.91208 64.7974C8.59568 64.1282 8.96482 63.6134 11.3379 61.5028C13.289 59.7525 13.7109 59.4608 14.2207 59.4436C14.6426 59.4436 14.9414 59.5809 15.3633 59.9927Z" fill="white"/>
</svg>
