<svg width="90" height="91" viewBox="0 0 90 91" fill="none" xmlns="http://www.w3.org/2000/svg">
<g clip-path="url(#clip0_38_48)">
<path d="M41.6602 16.6923C36.5977 17.7963 32.6426 20.8324 30.4278 25.3347C30.0235 26.1282 29.7071 26.8872 29.7071 26.9907C29.7071 27.4392 29.4082 27.353 28.3887 26.594C27.0704 25.6107 24.8731 24.5757 23.2735 24.1789C21.5157 23.7649 18.2637 23.7994 16.5059 24.2652C11.461 25.5934 7.64653 29.5265 6.55669 34.5291C6.18754 36.2714 6.32817 39.4799 6.85551 41.1187C7.752 43.9132 9.82622 46.7595 12.0938 48.2948L12.9551 48.8641L11.6719 49.4161C8.70122 50.6753 5.27348 53.5044 3.46294 56.1782C2.26762 57.9377 1.10747 60.4045 0.580123 62.371C0.14067 63.9581 0.105514 64.3376 0.0352011 68.8399C-0.0351114 73.4802 -0.0175333 73.6182 0.334029 73.9632C0.70317 74.3255 0.808639 74.3255 10.8985 74.3255H21.0938V74.8257C21.0938 75.5675 21.252 75.8607 21.8145 76.1368C22.2364 76.361 25.4356 76.3955 45.0879 76.3955H67.8692L68.2911 75.9815C68.5196 75.7572 68.7657 75.2915 68.8184 74.9465L68.9415 74.3255H79.0489H89.1387L89.5782 73.8942L90.0352 73.4457L89.9473 68.6674C89.877 64.1306 89.8594 63.8028 89.4024 62.2503C87.7676 56.5922 83.7774 51.9519 78.4688 49.5541L77.0801 48.9158L77.5196 48.6398C79.5059 47.3633 81.211 45.414 82.2832 43.1715C84.3926 38.7899 84.0235 33.9771 81.2813 29.8888C79.629 27.422 77.2383 25.6452 74.1797 24.6102C72.5977 24.0754 72.3692 24.0582 69.961 24.0409C67.7637 24.0409 67.2188 24.0927 66.0938 24.4377C64.4415 24.9552 62.3321 26.0247 61.3653 26.8355C60.961 27.1632 60.6094 27.422 60.5743 27.3875C60.5391 27.353 60.2579 26.7492 59.959 26.0592C58.0606 21.6259 54.2813 18.3483 49.4473 16.9511C47.3204 16.33 43.8399 16.2093 41.6602 16.6923ZM47.9883 19.9009C48.6211 20.0561 49.7637 20.4701 50.5372 20.8496C55.0372 23.0059 57.8321 27.3702 57.8321 32.2176C57.8321 37.9619 54.1758 42.792 48.5157 44.517C46.6172 45.0863 43.2071 45.0863 41.3086 44.517C33.8731 42.2055 29.9883 34.6671 32.6954 27.7842C35.0684 21.7466 41.5547 18.4173 47.9883 19.9009ZM22.2891 27.3185C24.4336 27.8015 26.543 29.1125 28.002 30.8548C28.6348 31.5965 28.6524 31.6655 28.6524 33.0111C28.6524 34.5463 29.1094 36.6681 29.8125 38.3759L30.252 39.4627L29.8125 40.6874C28.2657 45.0518 23.9415 47.9498 19.336 47.7083C13.834 47.4323 9.42192 42.861 9.42192 37.4099C9.40434 30.7858 15.6973 25.8522 22.2891 27.3185ZM73.0547 27.6635C77.3614 29.078 80.1915 32.8903 80.209 37.3236C80.2442 41.9985 77.168 45.9833 72.5098 47.346C71.8418 47.5358 70.8575 47.6565 69.7852 47.6565C65.25 47.691 61.4004 45.0173 59.9239 40.8082L59.4493 39.4627L59.9414 38.1171C60.5743 36.4094 60.9961 34.2703 60.9961 32.7178V31.5103L62.3672 30.1648C65.3028 27.3012 69.1875 26.387 73.0547 27.6635ZM35.5782 45.276C36.0176 45.552 36.3868 45.8108 36.3868 45.8625C36.3868 45.9315 36.0879 46.0695 35.7364 46.1903C34.2247 46.7078 32.3614 47.6565 30.7442 48.7088L29.0391 49.8301L28.0547 49.3816L27.0704 48.9331L28.0723 48.2086C29.8477 46.932 31.9571 44.379 32.4141 42.999C32.502 42.7057 32.6778 42.8092 33.6446 43.7235C34.2598 44.2927 35.1211 45 35.5782 45.276ZM58.0079 44.3272C58.7813 45.6555 60.3282 47.3288 61.5938 48.1913C62.1387 48.5536 62.5782 48.8986 62.5782 48.9676C62.5782 49.0193 62.1739 49.2263 61.6641 49.4161C61.1543 49.5886 60.6973 49.7611 60.6446 49.7956C60.5918 49.8128 60.0118 49.4333 59.3262 48.9676C58.043 48.0361 55.125 46.518 53.9649 46.1903C53.5782 46.0695 53.2618 45.9315 53.2618 45.8625C53.2618 45.7935 53.6309 45.5003 54.1055 45.207C54.5625 44.9138 55.4063 44.241 55.9864 43.7235C57.1641 42.6712 57.0235 42.6195 58.0079 44.3272ZM48.6563 48.2776C57.1817 49.3298 63.9844 55.9712 65.2149 64.4238C65.3204 65.1828 65.461 67.4771 65.5137 69.5299L65.6192 73.2905H44.8243H24.0469L24.1348 68.7536C24.2051 65.5623 24.3106 63.8891 24.504 63.0783C25.6465 58.231 28.3008 54.2634 32.168 51.5724C34.8575 49.7093 37.3711 48.7778 41.1329 48.2086C42.1172 48.0706 47.3028 48.1223 48.6563 48.2776ZM23.9239 51.3481C24.6446 51.5379 25.5586 51.8139 25.9102 51.9691L26.5782 52.2451L26.0508 52.8489C24.5918 54.4532 22.9043 57.5065 22.0957 59.9215C21.2344 62.4918 21.0762 63.5268 20.9707 67.4599L20.8653 71.2204H11.9356H2.98833V68.4949C2.98833 65.4071 3.30473 63.5613 4.20122 61.2843C5.41411 58.2137 8.22661 54.9707 11.2149 53.2111C12.7266 52.3314 15.3985 51.3309 17.0508 51.0549C18.5977 50.7788 22.377 50.9514 23.9239 51.3481ZM73.8985 51.3654C76.8868 52.1416 79.9981 53.9529 82.0372 56.1092C84.0059 58.162 85.1836 60.2148 86.0801 63.0955C86.4844 64.4066 86.5547 64.9413 86.625 67.8911L86.6954 71.2204H77.7305H68.7657L68.6778 67.3736C68.6075 64.0098 68.5372 63.337 68.1504 61.8018C67.2188 58.231 65.4961 54.8327 63.5801 52.8144L63.0528 52.2451L63.6504 52.0036C64.459 51.6759 66.1114 51.2101 67.1133 51.0376C68.5547 50.7788 72.3516 50.9686 73.8985 51.3654Z" fill="white"/>
</g>
<defs>
<clipPath id="clip0_38_48">
<rect width="90" height="90" fill="white" transform="translate(0 0.80957)"/>
</clipPath>
</defs>
</svg>
