<svg width="32" height="32" viewBox="0 0 32 32" fill="none" xmlns="http://www.w3.org/2000/svg">
<path d="M6.89473 8.92077C3.1168 12.713 0 16.4104 0 17.074C0 18.4961 10.956 30.1571 13.6006 31.5792C14.8284 32.2428 15.6784 32.148 16.8118 31.1052C18.0396 29.7779 17.6618 29.0195 12.2783 23.426L6.32804 17.1688L12.1838 11.0065C17.0952 5.88701 17.9452 4.55974 17.0007 3.42208C16.3396 2.66363 15.3951 2 14.8284 2C14.2617 2 10.7671 5.12857 6.89473 8.92077Z" fill="black"/>
<path d="M20.4009 10.5325C16.7174 14.4195 15.2062 16.6 15.7729 17.548C17.6619 20.7714 26.4456 29.4935 27.8623 29.4935C31.168 29.4935 30.4124 26.4597 25.8789 21.8143L21.3454 17.1688L25.8789 12.5234C28.9012 9.3948 30.3179 7.30909 29.9402 6.36104C28.8068 3.51689 25.7844 4.84416 20.4009 10.5325Z" fill="black"/>
</svg>
