<svg width="67" height="67" viewBox="0 0 67 67" fill="none" xmlns="http://www.w3.org/2000/svg">
<path d="M30.4643 0.125626C24.3506 1.005 20.5818 2.24031 16.5409 4.64812C10.9924 7.97719 6.70025 12.5416 3.78994 18.2156C-1.82131 29.1869 -1.0885 41.7913 5.779 52.1763C8.58463 56.4266 13.819 61.0538 18.3624 63.315C28.1402 68.1725 39.2162 68.1516 48.7846 63.2103C57.4318 58.7506 63.5874 51.0038 65.9534 41.5819C70.6224 23.0103 58.709 4.31313 39.8652 0.62812C37.6668 0.188438 32.0346 -0.104691 30.4643 0.125626ZM27.0515 12.8138L27.1143 14.9284L28.5799 12.8138L30.0456 10.6991L30.9459 10.6781C31.4484 10.6781 31.8252 10.7619 31.7834 10.8875C31.7624 10.9922 30.7574 12.4578 29.564 14.1328L27.4284 17.1688H26.4862H25.544V13.9234V10.6781H26.2768H26.9887L27.0515 12.8138ZM37.4784 10.8037C37.4784 10.8666 37.2899 11.2016 37.0596 11.5366C36.6618 12.0809 36.5152 12.1228 35.0287 12.1856C34.0237 12.2275 33.3956 12.3322 33.3537 12.4997C33.2909 12.6253 33.5631 13.065 33.919 13.4419C34.8612 14.405 35.0287 14.9703 34.6518 15.7031C34.0656 16.8338 33.4584 17.0641 30.7156 17.1478C28.3287 17.2106 28.2449 17.1897 28.4543 16.8338C29.0615 15.7659 29.2081 15.7031 30.8412 15.7031C31.6996 15.7031 32.5581 15.6403 32.7465 15.5775C33.2909 15.3681 33.1234 14.6772 32.3487 13.9653C31.4693 13.1697 31.3856 12.4159 32.0974 11.6203C32.3487 11.3063 32.8931 10.9922 33.2909 10.8875C34.1493 10.6991 37.4784 10.6153 37.4784 10.8037ZM44.3877 10.8037C44.3877 10.8666 44.1993 11.2016 43.9481 11.5366C43.5712 12.06 43.3827 12.1437 42.5034 12.1437H41.4774L39.7396 14.6562L38.0018 17.1688H37.0806C36.4106 17.1688 36.2012 17.1059 36.2849 16.8966C36.3477 16.7291 37.0596 15.6613 37.8762 14.4888C38.6927 13.3162 39.3627 12.3112 39.3627 12.2484C39.3627 12.1856 38.944 12.1437 38.3996 12.1437H37.4574L38.0227 11.4109L38.5671 10.6781H41.4774C43.0896 10.6781 44.3877 10.7409 44.3877 10.8037ZM47.1096 10.8247C47.1096 10.9084 46.4815 11.8925 45.7277 13.0022C44.9531 14.1119 44.4087 15.1378 44.4715 15.2634C44.6599 15.5566 45.6859 15.5566 46.3559 15.2425C46.649 15.1169 47.5702 14.0281 48.4077 12.8347L49.9152 10.6781H50.8156C51.3181 10.6781 51.7159 10.7409 51.7159 10.8037C51.7159 11.055 48.9731 14.8447 48.3449 15.4519C45.9999 17.755 41.3518 17.6712 42.2312 15.3681C42.3149 15.1169 43.0687 13.9653 43.8643 12.8138C45.3299 10.6991 45.3299 10.6991 46.2302 10.6781C46.7118 10.6781 47.1096 10.7409 47.1096 10.8247ZM59.2534 18.9275C59.2534 18.9903 54.1656 26.3184 47.9471 35.2169C35.8871 52.4694 35.1334 53.4325 32.5371 54.7934C30.7365 55.7566 29.1243 56.1334 26.8003 56.1125C24.9996 56.1125 23.3665 55.9031 23.0943 55.6309C23.0524 55.5681 23.4503 54.8981 24.0156 54.1234L25.0415 52.7206L27.0096 52.6788C28.7474 52.6578 29.1662 52.5741 30.3596 51.9878C32.0137 51.2131 33.4584 49.9988 33.8353 49.0566C34.0446 48.5541 34.1284 47.235 34.1284 44.0316V39.6766L35.8662 37.2059L37.5831 34.7353L37.6459 38.9228C37.6668 41.2469 37.7715 43.1313 37.8552 43.1103C38.0018 43.1103 51.9462 23.1988 52.0927 22.8009C52.1346 22.6963 46.5024 22.6125 38.6927 22.6125C27.0934 22.6125 25.1462 22.6544 24.7693 22.9266C24.5181 23.0941 21.9009 26.7163 18.9068 30.9875C15.9337 35.2378 13.4421 38.7344 13.3793 38.7344C13.2956 38.7344 12.8349 38.0644 12.3534 37.2688L11.4949 35.7822L16.1012 29.2078L20.7074 22.6125H17.7343C16.1012 22.6125 14.4262 22.7172 14.0074 22.8219C11.1809 23.6175 10.2596 26.1509 11.7043 29.2288C12.0603 29.9825 12.3534 30.6944 12.3534 30.7991C12.3534 30.9038 11.9137 31.5947 11.3693 32.3484C10.2178 33.9397 10.3015 33.9816 9.10807 31.5109C6.05119 25.1669 8.39619 19.9744 14.7403 19.0531C15.8709 18.8856 59.2534 18.7809 59.2534 18.9275ZM42.1684 24.5388C42.0009 24.8319 23.3456 51.4853 22.3824 52.8044L21.8171 53.6L20.9587 52.1134C20.4981 51.2759 20.1003 50.5431 20.1003 50.4594C20.1003 50.3756 23.4503 45.5181 27.554 39.6556C31.6577 33.7931 35.0706 28.7891 35.1334 28.5169C35.2171 28.1191 35.1334 28.0563 34.589 28.0563C34.254 28.0563 33.7724 28.2238 33.5421 28.4122C33.3118 28.6216 30.234 32.9347 26.6956 38.0016C23.1362 43.0684 19.9956 47.57 19.6606 48.0097L19.0953 48.8263L18.2159 47.3188C17.7343 46.5022 17.3993 45.6856 17.4621 45.5181C17.5249 45.3297 20.184 41.4772 23.3665 36.9338C26.9468 31.825 29.1034 28.5588 29.0196 28.3703C28.894 28.0144 28.2031 27.9516 27.6587 28.2656C27.4493 28.3703 24.8321 31.9506 21.859 36.2219C18.8649 40.4722 16.3943 43.9688 16.3315 43.9688C16.2687 43.9688 15.8499 43.2569 15.3684 42.4194L14.5099 40.87L19.9118 33.165C22.8849 28.9147 25.6068 25.1878 25.9627 24.8528L26.5909 24.2875H34.4634C40.6818 24.2875 42.294 24.3503 42.1684 24.5388Z" fill="white"/>
</svg>
